<?xml version="1.0" encoding="utf-8"?>
<!-- Generator: Adobe Illustrator 16.0.4, SVG Export Plug-In . SVG Version: 6.00 Build 0)  -->
<!DOCTYPE svg PUBLIC "-//W3C//DTD SVG 1.1//EN" "http://www.w3.org/Graphics/SVG/1.1/DTD/svg11.dtd">
<svg version="1.1" id="Layer_1" xmlns="http://www.w3.org/2000/svg" xmlns:xlink="http://www.w3.org/1999/xlink" x="0px" y="0px"
	 width="200px" height="200px" viewBox="0 0 200 200" enable-background="new 0 0 200 200" xml:space="preserve">
<g>
	<path fill="#FFFFFF" d="M143.981,92.169c-8.046-1.609-16.022-0.819-23.919,1.124c-0.775,0.19-1.517,0.592-2.217,0.994
		c-2.258,1.297-3.069,3.119-2.222,5.712c1.7,5.197,6.374,8.056,14.198,8.043c0.814-0.096,2.457-0.151,4.034-0.503
		c5.151-1.144,9.851-3.178,12.994-7.683C149.629,95.874,148.617,93.097,143.981,92.169z"/>
	<path fill="#FFFFFF" d="M79.47,93.195c-4.289-1.043-8.736-1.432-13.529-2.177c-3.451,0.439-7.249,0.708-10.946,1.461
		c-3.009,0.612-3.653,1.995-3.028,4.998c0.604,2.898,2.21,5.167,4.718,6.696c6.18,3.769,12.914,4.868,19.844,3.019
		c2.35-0.628,4.794-2.368,6.33-4.289C86.448,98.405,85.074,94.559,79.47,93.195z"/>
	<path fill="#FFFFFF" d="M100,8.75C49.604,8.75,8.75,49.604,8.75,100c0,50.396,40.854,91.25,91.25,91.25
		c50.396,0,91.25-40.854,91.25-91.25C191.25,49.604,150.396,8.75,100,8.75z M164.693,106.037c-1.65,3.925-4.68,6.853-8.493,8.886
		c-9.975,5.319-20.587,8.41-31.848,9.187c-4.65,0.263-8.689-0.96-12.372-3.967c-2.543-2.077-5.449-3.92-8.486-5.134
		c-3.462-1.382-6.962-0.378-10.042,1.758c-0.447,0.312-0.916,0.611-1.291,0.998c-6.555,6.756-14.549,7.267-23.161,5.512
		c-8.122-1.654-15.948-4.116-23.39-7.795c-4.704-2.325-8.654-5.543-10.685-10.407c-2.78-6.663-5.401-13.422-7.54-20.31
		c-1.629-5.248,2.247-9.392,7.719-8.791c35.255,3.867,70.583,4.05,105.942,2c7.689-0.445,15.354-1.333,23.025-2.056
		c6.534-0.616,10.359,3.405,8.406,9.605C170.283,92.489,167.526,99.297,164.693,106.037z"/>
</g>
</svg>
