<?xml version="1.0" encoding="utf-8"?>
<!-- Generator: Adobe Illustrator 16.0.4, SVG Export Plug-In . SVG Version: 6.00 Build 0)  -->
<!DOCTYPE svg PUBLIC "-//W3C//DTD SVG 1.1//EN" "http://www.w3.org/Graphics/SVG/1.1/DTD/svg11.dtd">
<svg version="1.1" id="Layer_1" xmlns="http://www.w3.org/2000/svg" xmlns:xlink="http://www.w3.org/1999/xlink" x="0px" y="0px"
	 width="540px" height="540px" viewBox="0 0 540 540" enable-background="new 0 0 540 540" xml:space="preserve">
<rect fill="#4A494A" width="540" height="540"/>
<g>
	<path fill="#878787" d="M349.062,212.471c-7.606-36.687-40.108-64.262-79.052-64.262c-44.592,0-80.737,36.148-80.737,80.738
		c0,10.752,2.19,21.324,6.394,31.213c1.381,3.246,2.982,6.375,4.563,9.525c1.714,3.419,3.226,6.934,4.841,10.399
		c1.727,3.707,3.441,7.419,5.125,11.144c1.609,3.557,3.193,7.124,4.73,10.711c1.439,3.352,2.84,6.719,4.187,10.111
		c1.236,3.11,2.425,6.238,3.547,9.392c1.016,2.853,1.976,5.722,2.862,8.615c0.795,2.592,1.531,5.198,2.191,7.825
		c0.59,2.338,1.116,4.692,1.572,7.061c0.406,2.105,0.752,4.222,1.033,6.347c0.25,1.893,0.449,3.79,0.589,5.695
		c0.126,1.696,0.207,3.397,0.237,5.099c0.028,1.518,0.018,3.033-0.037,4.55c-0.049,1.342-0.132,2.684-0.254,4.022
		c-0.109,1.176-0.25,2.349-0.434,3.517c-0.158,1.013-0.35,2.019-0.588,3.017c-0.205,0.859-0.443,1.708-0.73,2.54
		c-0.25,0.716-0.533,1.419-0.866,2.097c-0.292,0.592-0.618,1.163-0.985,1.71c-0.332,0.491-0.695,0.96-1.082,1.411
		c-0.363,0.421-0.75,0.824-1.141,1.218c-0.893,0.9-3.088,1.816-2.876,3.373c0.171,1.252,1.675,1.788,2.712,2.06
		c1.613,0.426,4.942,0.098,6.505-0.514C373.935,335.307,349.062,212.471,349.062,212.471z M289.968,238.371
		c-6.242,1.177-13-6.865-15.094-17.962c-2.094-11.098,1.27-21.047,7.512-22.224c6.238-1.179,12.996,6.863,15.09,17.961
		C299.569,227.243,296.206,237.192,289.968,238.371z M322.874,232.663c-6.238,1.178-12.997-6.863-15.09-17.96
		c-2.094-11.1,1.268-21.046,7.508-22.225c6.242-1.179,12.999,6.863,15.092,17.96C332.478,221.536,329.116,231.486,322.874,232.663z"
		/>
</g>
</svg>
