<?xml version="1.0" encoding="utf-8"?>
<!-- Generator: Adobe Illustrator 16.0.4, SVG Export Plug-In . SVG Version: 6.00 Build 0)  -->
<!DOCTYPE svg PUBLIC "-//W3C//DTD SVG 1.1//EN" "http://www.w3.org/Graphics/SVG/1.1/DTD/svg11.dtd">
<svg version="1.1" id="Layer_1" xmlns="http://www.w3.org/2000/svg" xmlns:xlink="http://www.w3.org/1999/xlink" x="0px" y="0px"
	 width="200px" height="200px" viewBox="0 0 200 200" enable-background="new 0 0 200 200" xml:space="preserve">
<g>
	<path fill="#6D2C91" d="M21.135,100.002c0-3.221,0.948-6.882,2.856-10.984c1.897-4.101,4.901-7.471,9.007-10.106L146.351,4.66
		c2.046-1.168,4.539-1.758,7.469-1.758c2.926,0,5.855,0.659,8.786,1.977c2.926,1.317,5.561,3.226,7.911,5.711
		c2.34,2.492,4.316,5.35,5.93,8.567c1.607,3.228,2.419,6.743,2.419,10.546c0,6.741-2.351,11.574-7.031,14.499l-84.797,55.8
		l84.797,55.358c2.341,1.468,4.101,3.516,5.271,6.15c1.17,2.636,1.761,5.568,1.761,8.786c0,7.621-2.715,13.993-8.128,19.113
		c-5.428,5.131-11.062,7.688-16.918,7.688c-3.226,0-5.713-0.728-7.469-2.192L32.998,121.089c-4.105-2.923-7.109-6.37-9.007-10.325
		C22.083,106.811,21.135,103.227,21.135,100.002z"/>
</g>
</svg>
