<?xml version="1.0" encoding="utf-8"?>
<!-- Generator: Adobe Illustrator 16.0.4, SVG Export Plug-In . SVG Version: 6.00 Build 0)  -->
<!DOCTYPE svg PUBLIC "-//W3C//DTD SVG 1.1//EN" "http://www.w3.org/Graphics/SVG/1.1/DTD/svg11.dtd">
<svg version="1.1" id="Layer_1" xmlns="http://www.w3.org/2000/svg" xmlns:xlink="http://www.w3.org/1999/xlink" x="0px" y="0px"
	 width="200px" height="200px" viewBox="0 0 200 200" enable-background="new 0 0 200 200" xml:space="preserve">
<g>
	<path fill="#FFFFFF" d="M100,8.75C49.604,8.75,8.75,49.604,8.75,100c0,50.396,40.854,91.25,91.25,91.25
		c50.396,0,91.25-40.854,91.25-91.25C191.25,49.604,150.396,8.75,100,8.75z M160.881,136.285c-0.262,0.192-0.201,0.498-0.262,0.759
		c-1.311,5.662-6.102,9.65-11.848,9.655c-32.513,0.027-65.025,0.023-97.537,0.003c-5.476-0.004-10.177-3.694-11.678-8.962
		c-0.138-0.484-0.087-1.033-0.438-1.454c0-19.58,0-39.159,0-58.739c0.31-0.139,0.279-0.463,0.355-0.711
		c1.866-6.042,6.218-9.276,12.506-9.277c4.477-0.002,8.953,0.006,13.429-0.003c2.697-0.005,4.594-1.382,5.446-3.924
		c1.144-3.414,2.275-6.833,3.427-10.244c0.94-2.779,2.78-4.102,5.689-4.103c13.348-0.003,26.697-0.003,40.045,0
		c2.919,0,4.764,1.316,5.696,4.091c1.125,3.336,2.211,6.687,3.33,10.026c0.952,2.843,2.781,4.154,5.772,4.156
		c4.635,0.002,9.269-0.028,13.902,0.01c5.302,0.043,9.843,3.369,11.54,8.348c0.213,0.622,0.193,1.323,0.623,1.869
		C160.881,97.285,160.881,116.785,160.881,136.285z"/>
	<path fill="#FFFFFF" d="M99.978,73.648C83,73.714,69.505,87.357,69.559,104.401c0.052,16.708,13.834,30.176,30.818,30.122
		c16.577-0.056,30.11-13.847,30.065-30.64C130.395,87.237,116.641,73.584,99.978,73.648z M99.97,125.52
		c-11.898-0.021-21.535-9.69-21.458-21.53c0.078-11.81,9.717-21.377,21.514-21.355c11.808,0.023,21.411,9.604,21.461,21.411
		C121.537,115.877,111.856,125.538,99.97,125.52z"/>
</g>
</svg>
