<?xml version="1.0" encoding="utf-8"?>
<!-- Generator: Adobe Illustrator 16.0.4, SVG Export Plug-In . SVG Version: 6.00 Build 0)  -->
<!DOCTYPE svg PUBLIC "-//W3C//DTD SVG 1.1//EN" "http://www.w3.org/Graphics/SVG/1.1/DTD/svg11.dtd">
<svg version="1.1" id="Layer_1" xmlns="http://www.w3.org/2000/svg" xmlns:xlink="http://www.w3.org/1999/xlink" x="0px" y="0px"
	 width="500px" height="500px" viewBox="0 0 500 500" enable-background="new 0 0 500 500" xml:space="preserve">
<g>
	<g>
		<rect x="-6" y="-7" fill="#5D5E5E" width="514" height="514"/>
	</g>
	<g>
		<path fill="#8E8E8E" d="M322.798,197.757c-6.908-33.315-36.424-58.356-71.788-58.356c-40.492,0-73.318,32.826-73.318,73.318
			c0,9.765,1.99,19.366,5.807,28.344c1.254,2.948,2.709,5.79,4.143,8.651c1.558,3.105,2.93,6.297,4.396,9.445
			c1.568,3.365,3.125,6.736,4.656,10.118c1.459,3.229,2.897,6.471,4.294,9.728c1.308,3.044,2.581,6.102,3.804,9.181
			c1.121,2.824,2.2,5.667,3.22,8.53c0.923,2.59,1.794,5.195,2.6,7.823c0.722,2.352,1.391,4.721,1.99,7.105
			c0.534,2.124,1.013,4.261,1.427,6.411c0.369,1.912,0.684,3.835,0.939,5.764c0.227,1.719,0.408,3.443,0.535,5.173
			c0.113,1.541,0.186,3.085,0.215,4.631c0.025,1.376,0.014,2.754-0.036,4.13c-0.043,1.22-0.117,2.438-0.229,3.654
			c-0.1,1.066-0.228,2.133-0.393,3.192c-0.144,0.92-0.318,1.835-0.534,2.74c-0.185,0.779-0.402,1.551-0.663,2.307
			c-0.227,0.648-0.485,1.287-0.787,1.903c-0.265,0.537-0.562,1.058-0.895,1.553c-0.301,0.447-0.631,0.873-0.982,1.28
			c-0.332,0.385-0.68,0.75-1.037,1.108c-0.811,0.816-2.803,1.647-2.609,3.062c0.155,1.135,1.52,1.623,2.462,1.87
			c1.464,0.387,4.489,0.089,5.907-0.466C345.384,309.305,322.798,197.757,322.798,197.757z M269.132,221.276
			c-5.668,1.069-11.804-6.233-13.704-16.31c-1.901-10.078,1.152-19.114,6.82-20.183c5.665-1.069,11.801,6.233,13.702,16.311
			S274.799,220.207,269.132,221.276z M299.017,216.093c-5.668,1.07-11.804-6.232-13.704-16.31
			c-1.902-10.079,1.151-19.114,6.818-20.183c5.668-1.069,11.804,6.232,13.704,16.31
			C307.737,205.989,304.684,215.025,299.017,216.093z"/>
	</g>
</g>
</svg>
