<?xml version="1.0" encoding="utf-8"?>
<!-- Generator: Adobe Illustrator 16.0.4, SVG Export Plug-In . SVG Version: 6.00 Build 0)  -->
<!DOCTYPE svg PUBLIC "-//W3C//DTD SVG 1.1//EN" "http://www.w3.org/Graphics/SVG/1.1/DTD/svg11.dtd">
<svg version="1.1" id="Layer_1" xmlns="http://www.w3.org/2000/svg" xmlns:xlink="http://www.w3.org/1999/xlink" x="0px" y="0px"
	 width="200px" height="200px" viewBox="0 0 200 200" enable-background="new 0 0 200 200" xml:space="preserve">
<g>
	<path fill="#FFFFFF" d="M27.224,172.775c-5.569-5.568-8.899-11.554-9.982-17.966c-1.095-6.415,0.546-11.798,4.902-16.154
		l38.837-38.836L22.144,60.981c-4.356-4.356-6.114-9.62-5.266-15.79c0.841-6.169,4.177-12.16,9.985-17.968
		c5.562-5.562,11.546-8.894,17.965-9.982c6.41-1.088,11.798,0.545,16.154,4.901L99.818,60.98l38.475-38.475
		c3.867-3.868,9.188-5.444,15.971-4.719c6.771,0.726,12.942,3.87,18.512,9.439c5.807,5.806,8.95,11.978,9.436,18.51
		c0.477,6.533-1.213,11.741-5.08,15.609L138.656,99.82l38.474,38.473c3.868,3.868,5.503,9.257,4.898,16.151
		c-0.608,6.898-3.69,13.13-9.255,18.693c-5.807,5.809-12.047,8.895-18.694,9.256c-6.653,0.364-11.92-1.395-15.788-5.263
		l-38.473-38.474l-38.837,38.838c-4.355,4.355-9.627,6.107-15.792,5.263C39.017,181.913,33.031,178.583,27.224,172.775z"/>
</g>
</svg>
