<?xml version="1.0" encoding="utf-8"?>
<!-- Generator: Adobe Illustrator 16.0.4, SVG Export Plug-In . SVG Version: 6.00 Build 0)  -->
<!DOCTYPE svg PUBLIC "-//W3C//DTD SVG 1.1//EN" "http://www.w3.org/Graphics/SVG/1.1/DTD/svg11.dtd">
<svg version="1.1" id="Layer_1" xmlns="http://www.w3.org/2000/svg" xmlns:xlink="http://www.w3.org/1999/xlink" x="0px" y="0px"
	 width="200px" height="200px" viewBox="0 0 200 200" enable-background="new 0 0 200 200" xml:space="preserve">
<path fill="#FFFFFF" d="M32.495,102.288l52.573,80.261c1.865,2.906,4.252,5.035,7.156,6.377c2.903,1.351,5.496,2.021,7.775,2.021
	c2.283,0,4.82-0.671,7.621-2.021c2.8-1.344,5.24-3.471,7.311-6.377l52.266-80.26c1.037-1.243,1.553-3.004,1.553-5.289
	c0-4.147-1.811-8.138-5.443-11.979c-3.625-3.834-8.138-5.756-13.535-5.756c-2.277,0-4.354,0.418-6.221,1.247
	c-1.865,0.829-3.314,2.074-4.354,3.731l-22.263,34.1l0.001-97.233c0-3.271-1.751-6.193-5.204-8.687
	c-3.097-2.235-7.008-3.37-11.628-3.37c-4.449,0-8.333,1.116-11.554,3.317c-3.641,2.491-5.486,5.431-5.486,8.737v97.435
	l-22.57-34.299c-2.07-3.313-5.492-4.978-10.266-4.978c-2.692,0-5.184,0.573-7.469,1.713c-2.277,1.143-4.301,2.541-6.064,4.196
	c-1.76,1.665-3.11,3.53-4.043,5.603c-0.935,2.074-1.4,4.147-1.4,6.222S31.668,100.839,32.495,102.288z"/>
</svg>
