<?xml version="1.0" encoding="utf-8"?>
<!-- Generator: Adobe Illustrator 16.0.4, SVG Export Plug-In . SVG Version: 6.00 Build 0)  -->
<!DOCTYPE svg PUBLIC "-//W3C//DTD SVG 1.1//EN" "http://www.w3.org/Graphics/SVG/1.1/DTD/svg11.dtd">
<svg version="1.1" id="Layer_1" xmlns="http://www.w3.org/2000/svg" xmlns:xlink="http://www.w3.org/1999/xlink" x="0px" y="0px"
	 width="200px" height="200px" viewBox="0 0 200 200" enable-background="new 0 0 200 200" xml:space="preserve">
<g>
	<path fill="#6D2C91" d="M173.882,54.368c0.952-0.477,2.021-0.952,3.2-1.421c1.187-0.476,2.256-0.71,3.192-0.71
		c3.801,0,7.235,1.771,10.311,5.331c4.777,5.527,6.39,14.594,2.853,21.177c-1.719,3.199-4.577,5.599-7.405,7.787
		c-3.648,2.822-7.384,5.522-11.006,8.384c-6.009,4.746-12.057,9.444-18.089,14.161c-6.68,5.224-13.354,10.453-20.035,15.673
		c-5.594,4.37-11.181,8.748-16.771,13.124c-2.64,2.065-5.281,4.127-7.916,6.196c-0.058,0.045-0.113,0.099-0.175,0.137
		c-3.793,2.368-7.82,3.556-12.089,3.556c-4.262,0-8.282-1.188-12.082-3.556c-2.192-1.716-4.426-3.39-6.608-5.121
		c-5.321-4.218-10.663-8.394-16.04-12.538C58.504,121.371,52,115.93,45.224,110.83c-6.259-4.708-12.138-9.896-18.394-14.591
		c-4.024-3.019-8.114-5.961-11.937-9.235c-3.241-2.775-7.647-5.989-9.111-10.155c-2.212-6.287-1.197-13.816,3.184-18.93
		c2.842-3.317,6.165-4.972,9.951-4.972c0.96,0,2.131,0.235,3.552,0.71c1.428,0.47,2.615,0.944,3.559,1.422l73.924,57.143
		L173.882,54.368z"/>
</g>
</svg>
