<?xml version="1.0" encoding="utf-8"?>
<!-- Generator: Adobe Illustrator 16.0.4, SVG Export Plug-In . SVG Version: 6.00 Build 0)  -->
<!DOCTYPE svg PUBLIC "-//W3C//DTD SVG 1.1//EN" "http://www.w3.org/Graphics/SVG/1.1/DTD/svg11.dtd">
<svg version="1.1" id="Layer_1" xmlns="http://www.w3.org/2000/svg" xmlns:xlink="http://www.w3.org/1999/xlink" x="0px" y="0px"
	 width="217.489px" height="398.904px" viewBox="34.096 158.096 217.489 398.904"
	 enable-background="new 34.096 158.096 217.489 398.904" xml:space="preserve">
<g>
	<path fill="#FFFFFF" d="M208.865,420.791c-5.087-24.533-26.819-42.973-52.863-42.973c-29.819,0-53.99,24.172-53.99,53.99
		c0,7.191,1.465,14.26,4.275,20.875c0.923,2.168,1.995,4.262,3.051,6.369c1.146,2.287,2.157,4.637,3.237,6.953
		c1.156,2.48,2.302,4.963,3.429,7.453c1.075,2.379,2.135,4.766,3.163,7.162c0.962,2.242,1.898,4.492,2.8,6.762
		c0.828,2.078,1.623,4.17,2.372,6.281c0.68,1.908,1.32,3.826,1.914,5.762c0.532,1.732,1.024,3.475,1.465,5.232
		c0.396,1.564,0.746,3.139,1.052,4.721c0.271,1.41,0.503,2.822,0.691,4.244c0.167,1.268,0.3,2.535,0.393,3.811
		c0.086,1.133,0.139,2.273,0.159,3.408c0.019,1.016,0.012,2.029-0.024,3.043c-0.034,0.898-0.088,1.793-0.171,2.691
		c-0.072,0.787-0.166,1.57-0.289,2.35c-0.105,0.68-0.233,1.35-0.394,2.016c-0.136,0.576-0.296,1.145-0.487,1.701
		c-0.167,0.477-0.356,0.949-0.58,1.402c-0.194,0.396-0.414,0.779-0.658,1.143c-0.223,0.328-0.466,0.643-0.725,0.943
		c-0.243,0.281-0.501,0.551-0.762,0.816c-0.598,0.602-2.066,1.213-1.924,2.254c0.114,0.838,1.12,1.195,1.812,1.377
		c1.08,0.285,3.306,0.064,4.351-0.344C225.498,502.934,208.865,420.791,208.865,420.791z M169.349,438.109
		c-4.175,0.785-8.692-4.59-10.094-12.012c-1.4-7.42,0.85-14.072,5.023-14.861c4.171-0.787,8.69,4.592,10.092,12.012
		C175.769,430.668,173.52,437.322,169.349,438.109z M191.354,434.293c-4.173,0.787-8.692-4.59-10.092-12.01
		c-1.399-7.424,0.85-14.074,5.021-14.863c4.174-0.787,8.692,4.59,10.092,12.01C197.773,426.854,195.527,433.506,191.354,434.293z"/>
</g>
<g>
	<path fill="#FFFFFF" d="M215.615,391.566c0.506,0.197,1.582,0.305,2.104,0.166c0.335-0.088,0.821-0.262,0.877-0.666
		c0.069-0.504-0.641-0.801-0.929-1.092c-0.127-0.129-0.251-0.26-0.37-0.395c-0.125-0.146-0.242-0.299-0.35-0.457
		c-0.119-0.178-0.226-0.361-0.32-0.553c-0.107-0.221-0.2-0.447-0.28-0.68c-0.093-0.27-0.172-0.543-0.236-0.822
		c-0.078-0.322-0.139-0.648-0.19-0.977c-0.059-0.377-0.104-0.758-0.14-1.139c-0.04-0.434-0.065-0.867-0.083-1.301
		c-0.019-0.492-0.021-0.982-0.013-1.473c0.012-0.551,0.037-1.102,0.078-1.65c0.045-0.617,0.107-1.23,0.19-1.844
		c0.091-0.689,0.202-1.375,0.334-2.055c0.146-0.766,0.317-1.529,0.509-2.285c0.212-0.852,0.451-1.695,0.709-2.533
		c0.287-0.938,0.597-1.867,0.927-2.789c0.362-1.021,0.747-2.033,1.148-3.039c0.435-1.098,0.889-2.188,1.354-3.273
		c0.498-1.16,1.012-2.314,1.532-3.467c0.547-1.205,1.101-2.408,1.659-3.607c0.523-1.121,1.013-2.26,1.567-3.365
		c0.511-1.021,1.031-2.033,1.478-3.084c1.359-3.201,2.069-6.623,2.069-10.104c0-14.432-11.701-26.133-26.134-26.133
		c-12.604,0-23.123,8.926-25.586,20.801C177.522,333.752,169.471,373.512,215.615,391.566z M194.219,334.943
		c0.677-3.594,2.865-6.197,4.884-5.814c2.021,0.381,3.108,3.602,2.432,7.193c-0.679,3.592-2.866,6.195-4.886,5.814
		C194.629,341.754,193.54,338.533,194.219,334.943z M183.567,333.094c0.677-3.592,2.863-6.193,4.884-5.812s3.108,3.6,2.432,7.193
		c-0.677,3.59-2.864,6.193-4.886,5.812C183.977,339.908,182.891,336.688,183.567,333.094z"/>
</g>
<g>
	<path fill="#FFFFFF" d="M112.097,358.211c-2.968-14.312-15.646-25.07-30.84-25.07c-17.396,0-31.497,14.104-31.497,31.496
		c0,4.195,0.854,8.32,2.494,12.18c0.539,1.264,1.164,2.486,1.78,3.715c0.67,1.334,1.258,2.705,1.89,4.057
		c0.673,1.447,1.342,2.895,1.998,4.348c0.628,1.389,1.247,2.779,1.846,4.18c0.562,1.307,1.108,2.621,1.634,3.945
		c0.481,1.213,0.946,2.432,1.384,3.664c0.396,1.111,0.771,2.23,1.117,3.361c0.311,1.012,0.598,2.027,0.854,3.053
		c0.23,0.912,0.436,1.83,0.613,2.754c0.158,0.822,0.293,1.648,0.403,2.477c0.097,0.738,0.175,1.479,0.229,2.223
		c0.05,0.66,0.082,1.324,0.094,1.988c0.011,0.592,0.008,1.184-0.015,1.775c-0.02,0.523-0.052,1.047-0.1,1.568
		c-0.044,0.461-0.098,0.918-0.169,1.373c-0.062,0.395-0.137,0.787-0.229,1.176c-0.08,0.336-0.174,0.666-0.284,0.992
		c-0.098,0.279-0.208,0.553-0.34,0.818c-0.113,0.229-0.24,0.453-0.383,0.666c-0.13,0.191-0.272,0.375-0.422,0.551
		c-0.143,0.164-0.293,0.32-0.444,0.475c-0.35,0.352-1.207,0.709-1.123,1.316c0.066,0.488,0.653,0.697,1.058,0.805
		c0.631,0.166,1.929,0.037,2.537-0.201C121.8,406.129,112.097,358.211,112.097,358.211z M89.043,368.312
		c-2.435,0.459-5.071-2.678-5.89-7.006c-0.815-4.33,0.496-8.211,2.931-8.67c2.435-0.461,5.071,2.678,5.888,7.006
		C92.788,363.973,91.477,367.854,89.043,368.312z M101.88,366.086c-2.434,0.461-5.07-2.678-5.887-7.006
		c-0.816-4.33,0.495-8.211,2.929-8.672c2.435-0.459,5.07,2.678,5.887,7.008C105.626,361.746,104.315,365.627,101.88,366.086z"/>
</g>
<g>
	<path fill="#FFFFFF" d="M86.837,326.291c0.34,0.135,1.064,0.207,1.416,0.113c0.226-0.059,0.553-0.176,0.591-0.449
		c0.046-0.338-0.433-0.537-0.627-0.734c-0.086-0.084-0.169-0.172-0.249-0.264c-0.083-0.1-0.163-0.201-0.235-0.309
		c-0.08-0.117-0.151-0.242-0.215-0.371c-0.072-0.148-0.135-0.301-0.188-0.457c-0.063-0.182-0.115-0.367-0.159-0.553
		c-0.053-0.217-0.095-0.436-0.128-0.656c-0.041-0.254-0.071-0.51-0.095-0.766c-0.026-0.291-0.045-0.584-0.056-0.875
		c-0.014-0.33-0.016-0.66-0.01-0.99c0.008-0.371,0.024-0.742,0.052-1.109c0.032-0.416,0.074-0.828,0.129-1.24
		c0.061-0.463,0.137-0.924,0.226-1.383c0.099-0.514,0.214-1.027,0.342-1.537c0.144-0.572,0.303-1.139,0.477-1.703
		c0.193-0.631,0.402-1.256,0.623-1.877c0.244-0.686,0.502-1.367,0.771-2.043c0.294-0.74,0.599-1.473,0.912-2.201
		c0.335-0.781,0.68-1.559,1.029-2.332c0.367-0.812,0.74-1.619,1.117-2.428c0.352-0.752,0.681-1.52,1.053-2.262
		c0.345-0.688,0.693-1.369,0.994-2.075c0.916-2.153,1.393-4.454,1.393-6.796c0-9.709-7.87-17.578-17.578-17.578
		c-8.48,0-15.555,6.003-17.211,13.991C61.213,287.405,55.797,314.148,86.837,326.291z M72.444,288.205
		c0.454-2.416,1.927-4.168,3.284-3.912c1.361,0.257,2.093,2.423,1.638,4.84c-0.456,2.415-1.929,4.166-3.287,3.91
		S71.988,290.621,72.444,288.205z M65.279,286.962c0.455-2.416,1.927-4.167,3.285-3.911c1.359,0.258,2.09,2.423,1.636,4.84
		c-0.454,2.416-1.927,4.166-3.286,3.91C65.556,291.545,64.823,289.379,65.279,286.962z"/>
</g>
<g>
	<path fill="#FFFFFF" d="M152.396,174.524c1.799,0.116,3.598,0.316,5.383,0.608c3.207,0.521,6.427,1.276,9.543,2.204
		c23.816,7.099,39.376,27.793,41.259,53.073c1.027,13.765-2.92,26.087-8.221,38.285c-14.228,32.751-32.891,63.026-52.054,93.679
		c-21.167-34.623-43.203-68.241-56.715-106.298c-11.179-31.484,3.506-65.501,32.723-76.91
		C133.194,175.697,142.855,173.914,152.396,174.524z M148.284,266.252c16.533,0.023,29.996-13.199,30.152-29.618
		c0.16-16.497-13.776-30.359-30.335-30.171c-16.426,0.186-29.86,13.715-29.828,30.036
		C118.308,252.869,131.783,266.232,148.284,266.252z"/>
</g>
<g>
	<path fill="#FFFFFF" d="M225.562,280.768c-1.044-5.028-5.498-8.807-10.835-8.807c-6.112,0-11.066,4.955-11.066,11.067
		c0,1.474,0.3,2.922,0.876,4.277c0.189,0.445,0.409,0.874,0.625,1.307c0.235,0.469,0.442,0.951,0.664,1.426
		c0.237,0.508,0.471,1.016,0.701,1.527c0.221,0.488,0.438,0.977,0.65,1.469c0.197,0.459,0.389,0.92,0.573,1.387
		c0.17,0.426,0.332,0.854,0.486,1.287c0.139,0.391,0.271,0.783,0.393,1.18c0.108,0.355,0.209,0.713,0.3,1.072
		c0.082,0.32,0.154,0.643,0.216,0.969c0.056,0.289,0.103,0.578,0.142,0.869c0.034,0.26,0.062,0.52,0.08,0.781
		c0.018,0.232,0.028,0.467,0.033,0.699c0.003,0.209,0.002,0.416-0.006,0.623c-0.007,0.186-0.019,0.369-0.035,0.553
		c-0.015,0.16-0.033,0.322-0.059,0.48c-0.021,0.141-0.048,0.277-0.08,0.414c-0.028,0.117-0.062,0.234-0.101,0.348
		c-0.033,0.098-0.073,0.195-0.119,0.289c-0.038,0.08-0.085,0.16-0.134,0.234c-0.046,0.066-0.096,0.131-0.147,0.193
		c-0.051,0.057-0.104,0.113-0.158,0.166c-0.122,0.125-0.422,0.248-0.394,0.463c0.024,0.172,0.23,0.246,0.372,0.283
		c0.222,0.057,0.677,0.012,0.892-0.072C228.971,297.605,225.562,280.768,225.562,280.768z M217.461,284.318
		c-0.854,0.16-1.781-0.941-2.067-2.463c-0.288-1.521,0.172-2.884,1.028-3.046c0.854-0.161,1.78,0.94,2.068,2.462
		C218.777,282.792,218.315,284.155,217.461,284.318z M221.973,283.535c-0.855,0.162-1.781-0.94-2.069-2.461
		c-0.286-1.521,0.173-2.884,1.028-3.047c0.856-0.161,1.782,0.94,2.069,2.462C223.288,282.01,222.827,283.374,221.973,283.535z"/>
</g>
</svg>
