<?xml version="1.0" encoding="utf-8"?>
<!-- Generator: Adobe Illustrator 16.0.4, SVG Export Plug-In . SVG Version: 6.00 Build 0)  -->
<!DOCTYPE svg PUBLIC "-//W3C//DTD SVG 1.1//EN" "http://www.w3.org/Graphics/SVG/1.1/DTD/svg11.dtd">
<svg version="1.1" id="Layer_1" xmlns="http://www.w3.org/2000/svg" xmlns:xlink="http://www.w3.org/1999/xlink" x="0px" y="0px"
	 width="200px" height="200px" viewBox="0 0 200 200" enable-background="new 0 0 200 200" xml:space="preserve">
<g>
	<path fill="#663399" d="M163.257,53.972c-6.086-29.353-32.089-51.415-63.249-51.415c-35.677,0-64.597,28.922-64.597,64.598
		c0,8.603,1.753,17.062,5.117,24.974c1.104,2.596,2.386,5.1,3.65,7.621c1.372,2.736,2.581,5.548,3.874,8.32
		c1.381,2.967,2.753,5.937,4.1,8.916c1.288,2.847,2.555,5.701,3.785,8.57c1.152,2.683,2.273,5.375,3.35,8.09
		c0.99,2.487,1.941,4.989,2.838,7.515c0.812,2.282,1.58,4.578,2.29,6.894c0.637,2.073,1.226,4.158,1.753,6.26
		c0.472,1.871,0.893,3.756,1.258,5.649c0.325,1.685,0.602,3.377,0.827,5.077c0.2,1.516,0.358,3.032,0.47,4.559
		c0.102,1.355,0.166,2.719,0.19,4.078c0.023,1.215,0.014,2.428-0.029,3.641c-0.04,1.074-0.105,2.146-0.204,3.219
		c-0.087,0.941-0.199,1.88-0.346,2.812c-0.127,0.812-0.28,1.616-0.47,2.412c-0.164,0.689-0.355,1.368-0.585,2.035
		c-0.199,0.571-0.426,1.135-0.693,1.678c-0.233,0.473-0.495,0.931-0.788,1.366c-0.266,0.394-0.557,0.769-0.866,1.13
		c-0.291,0.336-0.6,0.659-0.913,0.975c-0.715,0.721-2.471,1.453-2.3,2.699c0.137,1.002,1.339,1.43,2.168,1.647
		c1.292,0.341,3.955,0.077,5.205-0.412C183.157,152.252,163.257,53.972,163.257,53.972z M115.977,74.693
		c-4.994,0.941-10.4-5.493-12.076-14.371c-1.676-8.878,1.016-16.839,6.01-17.781c4.99-0.943,10.398,5.492,12.074,14.371
		C123.658,65.79,120.967,73.75,115.977,74.693z M142.305,70.126c-4.992,0.943-10.4-5.491-12.074-14.369
		c-1.674-8.881,1.016-16.839,6.008-17.783c4.994-0.942,10.4,5.492,12.074,14.37C149.986,61.224,147.299,69.185,142.305,70.126z"/>
</g>
</svg>
