<?xml version="1.0" encoding="utf-8"?>
<!-- Generator: Adobe Illustrator 16.0.4, SVG Export Plug-In . SVG Version: 6.00 Build 0)  -->
<!DOCTYPE svg PUBLIC "-//W3C//DTD SVG 1.1//EN" "http://www.w3.org/Graphics/SVG/1.1/DTD/svg11.dtd">
<svg version="1.1" id="Layer_1" xmlns="http://www.w3.org/2000/svg" xmlns:xlink="http://www.w3.org/1999/xlink" x="0px" y="0px"
	 width="641.177px" height="347.059px" viewBox="0 0 641.177 347.059" enable-background="new 0 0 641.177 347.059"
	 xml:space="preserve">
<g>
	<g>
		<g>
			<g>
				<g>
					<path fill="#FFFFFF" d="M265.352,179.051c-6.268,0-12.148-1.298-17.649-3.898c-1.684,0.918-3.287,2.028-4.813,3.324
						c-1.529,1.3-2.291,3.174-2.291,5.617c0,3.518,1.755,5.96,5.271,7.334c3.514,1.373,7.906,2.447,13.179,3.209
						c5.271,0.768,11.002,1.453,17.188,2.062c6.189,0.611,11.919,1.873,17.19,3.781c5.272,1.913,9.663,4.773,13.181,8.597
						c3.511,3.817,5.271,9.165,5.271,16.042c0,5.346-1.109,10.046-3.323,14.098c-2.216,4.047-5.311,7.447-9.283,10.197
						c-3.975,2.752-8.709,4.813-14.21,6.188c-5.499,1.377-11.538,2.062-18.106,2.062c-6.726,0-12.915-0.686-18.565-2.062
						c-5.655-1.374-10.543-3.402-14.668-6.072c-4.125-2.675-7.374-5.884-9.74-9.627c-2.371-3.747-3.553-7.986-3.553-12.721
						c0-3.362,0.534-6.342,1.604-8.939c1.069-2.599,2.521-4.928,4.356-6.99c1.833-2.062,3.932-3.859,6.302-5.383
						c2.367-1.528,4.773-2.752,7.221-3.67c-3.668-1.221-6.687-3.014-9.055-5.385c-2.371-2.368-3.552-5.846-3.552-10.43
						c0-4.276,1.031-7.638,3.096-10.085c2.062-2.442,4.848-4.583,8.364-6.417c-3.976-3.36-7.069-7.525-9.281-12.492
						c-2.218-4.961-3.325-10.426-3.325-16.386v-8.712c0-5.499,0.918-10.541,2.751-15.126c1.833-4.583,4.468-8.556,7.907-11.92
						c3.438-3.357,7.6-5.956,12.49-7.793c4.89-1.832,10.314-2.747,16.274-2.747c5.347,0,10.314,0.841,14.898,2.519
						c4.583,1.684,8.556,4.054,11.918,7.106c2.292-4.583,4.928-8.135,7.908-10.658c2.978-2.519,5.765-3.78,8.363-3.78
						c2.293,0,4.011,0.653,5.159,1.949c1.145,1.3,1.719,2.636,1.719,4.009c0,1.375-0.384,2.487-1.147,3.326
						c-0.767,0.841-1.683,1.413-2.75,1.718c-1.833,0.306-3.896,1.144-6.188,2.519c-2.292,1.376-4.508,3.821-6.646,7.337
						c2.137,2.903,3.742,6.229,4.813,9.968c1.066,3.747,1.604,7.604,1.604,11.574v8.712c0,5.499-0.995,10.541-2.98,15.124
						c-1.988,4.585-4.737,8.596-8.25,12.035c-3.518,3.437-7.719,6.114-12.606,8.022
						C276.503,178.099,271.156,179.051,265.352,179.051z M297.438,225.578c0-4.738-1.529-8.365-4.583-10.887
						c-3.059-2.521-6.76-4.393-11.117-5.614c-4.354-1.228-8.938-2.027-13.751-2.407c-4.813-0.385-9.052-0.801-12.721-1.262
						c-5.35,1.682-10.084,4.126-14.21,7.334c-4.124,3.209-6.188,7.566-6.188,13.064c0,6.264,2.826,11.305,8.481,15.128
						c5.65,3.819,13.443,5.729,23.377,5.729c9.626,0,17.15-1.91,22.577-5.729C294.725,237.111,297.438,231.994,297.438,225.578z
						 M290.562,132.293c0-7.484-2.176-13.751-6.532-18.791c-4.354-5.046-10.506-7.565-18.45-7.565
						c-7.947,0-14.096,2.519-18.449,7.565c-4.356,5.04-6.532,11.307-6.532,18.791v8.481c0,7.793,2.211,14.249,6.646,19.368
						c4.43,5.121,10.619,7.678,18.564,7.678c7.794,0,13.867-2.523,18.221-7.565c4.356-5.04,6.532-11.458,6.532-19.25V132.293z"/>
					<path fill="#FFFFFF" d="M333.881,198.532c0,1.53-0.728,2.905-2.177,4.126c-1.454,1.226-3.247,1.834-5.386,1.834
						c-2.142,0-3.898-0.608-5.272-1.834c-1.376-1.221-2.063-2.596-2.063-4.126V35.114c0-1.678,0.687-3.014,2.063-4.009
						c1.374-0.993,3.131-1.49,5.272-1.49c2.139,0,3.932,0.498,5.386,1.49c1.449,0.995,2.177,2.331,2.177,4.009v77.012
						c2.442-4.43,6.188-8.443,11.23-12.033c5.042-3.591,11.383-5.386,19.024-5.386c5.5,0,10.692,1.11,15.585,3.324
						c4.888,2.216,9.204,5.27,12.951,9.168c3.741,3.896,6.681,8.442,8.821,13.636c2.14,5.196,3.209,10.771,3.209,16.731v60.965
						c0,1.987-0.767,3.478-2.291,4.47c-1.527,0.994-3.287,1.49-5.271,1.49c-1.685,0-3.324-0.496-4.927-1.49
						c-1.605-0.992-2.408-2.482-2.408-4.47v-60.965c0-3.67-0.767-7.256-2.292-10.772c-1.529-3.516-3.553-6.606-6.074-9.283
						c-2.521-2.67-5.539-4.848-9.053-6.532c-3.516-1.678-7.184-2.523-11.002-2.523c-3.362,0-6.684,0.653-9.969,1.951
						c-3.287,1.298-6.227,3.209-8.824,5.728c-2.601,2.523-4.698,5.58-6.304,9.17c-1.604,3.591-2.406,7.678-2.406,12.262V198.532z"/>
					<path fill="#FFFFFF" d="M453.289,94.707c5.806,0,11.346,1.11,16.618,3.324c5.272,2.216,9.931,5.27,13.981,9.168
						c4.046,3.896,7.254,8.442,9.626,13.636c2.367,5.196,3.552,10.771,3.552,16.731v24.981c0,5.657-1.185,11.115-3.552,16.387
						c-2.372,5.273-5.58,9.896-9.626,13.865c-4.051,3.977-8.709,7.186-13.981,9.627c-5.272,2.442-10.812,3.67-16.618,3.67
						c-5.809,0-11.31-1.188-16.501-3.553c-5.197-2.367-9.78-5.578-13.752-9.629c-3.977-4.047-7.144-8.669-9.511-13.864
						c-2.372-5.194-3.553-10.693-3.553-16.503v-24.981c0-5.651,1.145-11.079,3.437-16.275c2.293-5.191,5.386-9.774,9.284-13.749
						c3.896-3.973,8.479-7.108,13.751-9.399C441.717,95.851,447.331,94.707,453.289,94.707z M482.169,137.566
						c0-3.67-0.767-7.256-2.29-10.772c-1.532-3.516-3.594-6.606-6.188-9.283c-2.603-2.67-5.657-4.848-9.171-6.532
						c-3.517-1.678-7.258-2.523-11.23-2.523c-3.975,0-7.717,0.845-11.23,2.523c-3.516,1.685-6.532,3.862-9.053,6.532
						c-2.521,2.677-4.509,5.768-5.958,9.283c-1.456,3.516-2.18,7.102-2.18,10.772v24.981c0,3.823,0.724,7.529,2.18,11.115
						c1.449,3.592,3.474,6.762,6.073,9.512c2.598,2.752,5.616,4.967,9.053,6.648c3.437,1.684,7.141,2.52,11.115,2.52
						c3.973,0,7.714-0.836,11.23-2.52c3.514-1.682,6.568-3.896,9.171-6.648c2.595-2.75,4.656-5.92,6.188-9.512
						c1.523-3.586,2.29-7.292,2.29-11.115V137.566z"/>
					<path fill="#FFFFFF" d="M531.902,193.49c8.709,0,14.817-1.604,18.336-4.812c3.512-3.21,5.271-7.027,5.271-11.461
						c0-5.044-1.414-8.94-4.241-11.689c-2.828-2.75-6.302-4.963-10.429-6.647c-4.124-1.678-8.673-3.168-13.636-4.47
						c-4.967-1.295-9.512-3.014-13.639-5.155c-4.124-2.139-7.602-4.965-10.428-8.481c-2.828-3.514-4.239-8.481-4.239-14.899
						c0-3.666,0.649-7.333,1.947-11s3.4-6.991,6.304-9.971c2.901-2.98,6.647-5.422,11.23-7.333c4.585-1.91,10.161-2.864,16.73-2.864
						c3.819,0,7.565,0.343,11.231,1.028c3.669,0.69,6.952,1.531,9.857,2.523c2.898,0.995,5.229,2.175,6.988,3.552
						c1.758,1.375,2.637,2.751,2.637,4.126c0,1.223-0.574,2.829-1.719,4.814c-1.146,1.987-2.636,2.979-4.47,2.979
						c-0.918,0-2.063-0.343-3.437-1.033c-1.377-0.686-3.062-1.409-5.044-2.175c-1.987-0.765-4.28-1.49-6.876-2.18
						c-2.601-0.688-5.578-1.031-8.939-1.031c-4.278,0-7.871,0.572-10.771,1.721c-2.903,1.142-5.271,2.598-7.104,4.354
						c-1.834,1.756-3.134,3.706-3.898,5.842c-0.766,2.141-1.144,4.126-1.144,5.96c0,4.434,1.408,7.793,4.239,10.084
						c2.826,2.292,6.34,4.167,10.543,5.616c4.201,1.454,8.745,2.828,13.636,4.124c4.891,1.3,9.434,3.134,13.641,5.501
						c4.197,2.372,7.713,5.58,10.541,9.627c2.824,4.049,4.242,9.512,4.242,16.386c0,9.171-3.211,16.388-9.628,21.66
						c-6.416,5.272-15.51,7.909-27.274,7.909c-5.352,0-10.239-0.538-14.669-1.605c-4.434-1.067-8.215-2.408-11.346-4.012
						c-3.132-1.604-5.578-3.397-7.333-5.385c-1.759-1.985-2.636-3.819-2.636-5.504c0-1.523,0.493-3.055,1.488-4.58
						c0.991-1.527,2.253-2.293,3.782-2.293c1.221,0,2.521,0.572,3.897,1.719c1.375,1.146,3.17,2.369,5.386,3.665
						c2.214,1.302,4.963,2.522,8.251,3.669C522.466,192.916,526.706,193.49,531.902,193.49z"/>
					<path fill="#FFFFFF" d="M587.595,170.801c0,7.486,1.564,12.72,4.7,15.698c3.127,2.979,6.686,4.437,14.634,4.437l0.321,0.033
						c2.137,0,3.819,0.689,5.043,2.064c1.221,1.373,1.833,2.903,1.833,4.581c0,1.836-0.612,3.441-1.833,4.813
						c-1.224,1.375-2.906,2.064-5.043,2.064l0,0c-11.919,0-19.273-2.637-25.385-7.906c-6.111-5.275-9.166-13.867-9.166-25.785
						V50.014c0-1.682,0.8-3.016,2.405-4.013c1.604-0.993,3.245-1.49,4.927-1.49c1.834,0,3.553,0.497,5.155,1.49
						c1.605,0.997,2.408,2.331,2.408,4.013v46.068h13.203c1.525,0,2.787,0.612,3.782,1.833c0.993,1.226,1.489,2.675,1.489,4.357
						c0,1.68-0.496,3.131-1.489,4.353c-0.995,1.225-2.257,1.832-3.782,1.832h-13.203V170.801z"/>
					<path fill="#FFFFFF" d="M427.489,321.968c-0.459,1.372-1.261,2.328-2.407,2.861c-1.145,0.537-2.331,0.806-3.553,0.806
						c-3.056,0-5.123-1.146-6.188-3.437l-23.837-74.491l-23.604,73.343c-0.918,3.055-3.134,4.585-6.65,4.585
						c-1.526,0-2.788-0.31-3.78-0.918c-0.995-0.612-1.798-1.833-2.408-3.667l-35.752-96.031c-0.611-1.222-0.918-2.368-0.918-3.438
						c0-1.838,0.956-3.4,2.866-4.7c1.909-1.298,3.933-1.948,6.074-1.948c1.221,0,2.328,0.268,3.323,0.802
						c0.993,0.538,1.642,1.413,1.947,2.636l29.338,81.596l23.609-74.491c0.76-2.595,2.747-3.894,5.956-3.894
						c1.377,0,2.598,0.265,3.669,0.801c1.067,0.538,1.834,1.568,2.291,3.093l22.688,75.405l30.026-82.51
						c0.305-1.068,0.918-1.91,1.834-2.521c0.918-0.61,1.984-0.917,3.208-0.917c1.985,0,3.973,0.573,5.96,1.718
						c1.985,1.146,2.98,2.79,2.98,4.931c0,1.373-0.311,2.52-0.918,3.438L427.489,321.968z"/>
					<path fill="#FFFFFF" d="M499.457,214.017c7.638,0,14.095,1.223,19.365,3.664c5.271,2.447,9.546,5.732,12.836,9.856
						c3.283,4.126,5.65,8.865,7.104,14.21c1.451,5.352,2.177,10.853,2.177,16.506v59.588c0,1.685-0.687,3.096-2.06,4.242
						c-1.377,1.144-3.137,1.719-5.274,1.719c-1.987,0-3.632-0.575-4.927-1.719c-1.298-1.146-1.949-2.558-1.949-4.242v-10.084
						c-3.975,4.586-8.786,8.676-14.439,12.262c-5.652,3.59-12.377,5.388-20.17,5.388c-4.432,0-8.519-0.612-12.262-1.833
						c-3.743-1.222-7.028-3.096-9.855-5.617c-2.828-2.523-5.042-5.65-6.647-9.398c-1.603-3.74-2.403-8.21-2.403-13.406
						c0-6.263,1.296-11.422,3.894-15.472c2.599-4.047,6.225-7.255,10.889-9.625c4.658-2.37,10.274-4.013,16.845-4.929
						c6.568-0.918,13.826-1.375,21.773-1.375h11.689v-5.498c0-3.67-0.5-7.338-1.487-11.002c-0.999-3.67-2.562-6.994-4.699-9.974
						c-2.144-2.976-4.931-5.422-8.368-7.333c-3.438-1.91-7.602-2.864-12.491-2.864c-3.821,0-7.065,0.344-9.74,1.031
						c-2.675,0.687-4.968,1.454-6.876,2.292c-1.912,0.84-3.478,1.604-4.698,2.293c-1.223,0.688-2.291,1.029-3.208,1.029
						c-1.987,0-3.478-0.914-4.471-2.752c-0.994-1.832-1.489-3.586-1.489-5.271c0-1.524,0.918-2.979,2.751-4.354
						c1.834-1.373,4.241-2.596,7.222-3.668c2.976-1.064,6.302-1.946,9.969-2.636C492.12,214.36,495.788,214.017,499.457,214.017z
						 M526.042,274.064h-9.628c-5.347,0-10.425,0.194-15.239,0.574c-4.812,0.385-9.132,1.262-12.948,2.637
						c-3.821,1.373-6.841,3.361-9.056,5.957c-2.216,2.601-3.323,6.114-3.323,10.546c0,6.726,1.909,11.571,5.731,14.552
						c3.815,2.98,8.554,4.47,14.209,4.47c3.669,0,7.294-0.762,10.887-2.292c3.588-1.525,6.837-3.474,9.739-5.844
						c2.903-2.367,5.234-4.965,6.994-7.793c1.753-2.826,2.634-5.537,2.634-8.135V274.064z"/>
					<path fill="#FFFFFF" d="M565.198,214.017c2.134,0,3.932,0.496,5.384,1.489c1.45,0.995,2.177,2.329,2.177,4.009v98.326
						c0,1.531-0.727,2.905-2.177,4.127c-1.452,1.225-3.25,1.834-5.384,1.834c-2.144,0-3.898-0.609-5.275-1.834
						c-1.374-1.222-2.062-2.596-2.062-4.127v-98.326c0-1.68,0.688-3.014,2.062-4.009C561.3,214.513,563.055,214.017,565.198,214.017
						z"/>
					<path fill="#FFFFFF" d="M597.578,214.017c2.14,0,3.933,0.496,5.384,1.489c1.453,0.995,2.18,2.329,2.18,4.009v98.326
						c0,1.531-0.727,2.905-2.18,4.127c-1.451,1.225-3.244,1.834-5.384,1.834c-2.144,0-3.896-0.609-5.27-1.834
						c-1.378-1.222-2.067-2.596-2.067-4.127v-98.326c0-1.68,0.689-3.014,2.067-4.009
						C593.683,214.513,595.435,214.017,597.578,214.017z"/>
				</g>
			</g>
		</g>
	</g>
	<g>
		<path fill="#FFFFFF" d="M204.868,114.749c-8.313-40.096-43.836-70.234-86.399-70.234c-48.735,0-88.241,39.508-88.241,88.242
			c0,11.751,2.394,23.306,6.989,34.114c1.508,3.548,3.26,6.967,4.986,10.411c1.874,3.738,3.525,7.58,5.291,11.366
			c1.887,4.052,3.761,8.108,5.601,12.179c1.759,3.889,3.49,7.787,5.17,11.707c1.573,3.664,3.104,7.344,4.576,11.051
			c1.351,3.4,2.65,6.818,3.876,10.266c1.11,3.117,2.159,6.253,3.128,9.415c0.87,2.833,1.674,5.682,2.395,8.553
			c0.645,2.556,1.22,5.128,1.719,7.716c0.444,2.302,0.823,4.615,1.129,6.938c0.273,2.068,0.491,4.143,0.643,6.225
			c0.138,1.854,0.227,3.713,0.26,5.572c0.031,1.659,0.019,3.315-0.041,4.973c-0.054,1.467-0.144,2.934-0.278,4.396
			c-0.12,1.285-0.272,2.566-0.473,3.844c-0.174,1.106-0.383,2.206-0.644,3.297c-0.224,0.939-0.484,1.866-0.798,2.775
			c-0.272,0.783-0.583,1.551-0.947,2.292c-0.319,0.646-0.676,1.271-1.077,1.869c-0.363,0.536-0.76,1.049-1.183,1.542
			c-0.397,0.461-0.818,0.9-1.246,1.331c-0.977,0.984-3.375,1.985-3.144,3.687c0.187,1.368,1.831,1.955,2.964,2.251
			c1.763,0.466,5.401,0.106,7.109-0.562C232.052,249.001,204.868,114.749,204.868,114.749z M140.281,143.055
			c-6.823,1.286-14.208-7.503-16.497-19.631c-2.289-12.129,1.387-23.003,8.209-24.29c6.819-1.288,14.205,7.501,16.493,19.631
			C150.775,130.894,147.099,141.767,140.281,143.055z M176.245,136.817c-6.818,1.287-14.205-7.501-16.492-19.629
			c-2.288-12.131,1.386-23.002,8.206-24.291c6.822-1.288,14.208,7.501,16.495,19.629
			C186.741,124.656,183.067,135.531,176.245,136.817z"/>
	</g>
</g>
</svg>
