<?xml version="1.0" encoding="utf-8"?>
<!-- Generator: Adobe Illustrator 16.0.4, SVG Export Plug-In . SVG Version: 6.00 Build 0)  -->
<!DOCTYPE svg PUBLIC "-//W3C//DTD SVG 1.1//EN" "http://www.w3.org/Graphics/SVG/1.1/DTD/svg11.dtd">
<svg version="1.1" id="Layer_1" xmlns="http://www.w3.org/2000/svg" xmlns:xlink="http://www.w3.org/1999/xlink" x="0px" y="0px"
	 width="444.088px" height="347.059px" viewBox="197.088 0 444.088 347.059" enable-background="new 197.088 0 444.088 347.059"
	 xml:space="preserve">
<g>
	<g>
		<g>
			<g>
				<g>
					<path fill="#FFFFFF" d="M265.352,179.051c-6.268,0-12.148-1.298-17.649-3.898c-1.684,0.918-3.287,2.029-4.813,3.324
						c-1.529,1.301-2.291,3.174-2.291,5.617c0,3.518,1.755,5.961,5.271,7.334c3.514,1.373,7.906,2.447,13.179,3.209
						c5.271,0.769,11.002,1.453,17.188,2.062c6.189,0.611,11.919,1.873,17.19,3.781c5.272,1.912,9.663,4.772,13.181,8.597
						c3.511,3.817,5.271,9.165,5.271,16.042c0,5.346-1.109,10.046-3.323,14.098c-2.216,4.047-5.311,7.447-9.283,10.197
						c-3.975,2.752-8.709,4.812-14.21,6.188c-5.499,1.377-11.538,2.062-18.106,2.062c-6.726,0-12.915-0.686-18.565-2.062
						c-5.655-1.373-10.543-3.401-14.668-6.071c-4.125-2.675-7.374-5.884-9.74-9.628c-2.371-3.746-3.553-7.985-3.553-12.721
						c0-3.361,0.534-6.342,1.604-8.938c1.069-2.599,2.521-4.929,4.356-6.99c1.833-2.062,3.932-3.858,6.302-5.383
						c2.367-1.528,4.773-2.752,7.221-3.67c-3.668-1.222-6.687-3.015-9.055-5.386c-2.371-2.367-3.552-5.846-3.552-10.43
						c0-4.275,1.031-7.638,3.096-10.085c2.062-2.442,4.848-4.583,8.364-6.417c-3.976-3.36-7.069-7.525-9.281-12.492
						c-2.218-4.961-3.325-10.426-3.325-16.386v-8.712c0-5.499,0.918-10.541,2.751-15.126c1.833-4.583,4.468-8.556,7.907-11.92
						c3.438-3.357,7.6-5.956,12.49-7.793c4.89-1.832,10.314-2.747,16.274-2.747c5.347,0,10.314,0.841,14.898,2.519
						c4.583,1.684,8.556,4.054,11.918,7.106c2.292-4.583,4.928-8.135,7.908-10.658c2.978-2.519,5.765-3.78,8.363-3.78
						c2.293,0,4.011,0.653,5.159,1.949c1.145,1.3,1.719,2.636,1.719,4.009c0,1.375-0.384,2.487-1.147,3.326
						c-0.767,0.841-1.683,1.413-2.75,1.718c-1.833,0.306-3.896,1.144-6.188,2.519c-2.292,1.376-4.508,3.821-6.646,7.337
						c2.137,2.903,3.742,6.229,4.813,9.968c1.066,3.747,1.604,7.604,1.604,11.574v8.712c0,5.499-0.995,10.541-2.98,15.124
						c-1.988,4.585-4.737,8.596-8.25,12.035c-3.518,3.437-7.719,6.114-12.606,8.022C276.503,178.1,271.156,179.051,265.352,179.051z
						 M297.438,225.578c0-4.738-1.529-8.365-4.583-10.887c-3.059-2.521-6.76-4.394-11.117-5.614
						c-4.354-1.228-8.938-2.027-13.751-2.407c-4.813-0.385-9.052-0.801-12.721-1.262c-5.35,1.682-10.084,4.126-14.21,7.334
						c-4.124,3.209-6.188,7.566-6.188,13.064c0,6.264,2.826,11.305,8.481,15.127c5.65,3.819,13.443,5.729,23.377,5.729
						c9.626,0,17.15-1.91,22.577-5.729C294.725,237.111,297.438,231.994,297.438,225.578z M290.562,132.293
						c0-7.484-2.176-13.751-6.532-18.791c-4.354-5.046-10.506-7.565-18.45-7.565c-7.947,0-14.096,2.519-18.449,7.565
						c-4.356,5.04-6.532,11.307-6.532,18.791v8.481c0,7.793,2.211,14.249,6.646,19.368c4.43,5.121,10.619,7.678,18.564,7.678
						c7.794,0,13.867-2.523,18.221-7.565c4.356-5.04,6.532-11.458,6.532-19.25V132.293z"/>
					<path fill="#FFFFFF" d="M333.881,198.532c0,1.53-0.729,2.905-2.178,4.126c-1.453,1.226-3.246,1.834-5.386,1.834
						c-2.142,0-3.897-0.608-5.272-1.834c-1.376-1.221-2.063-2.596-2.063-4.126V35.114c0-1.678,0.687-3.014,2.063-4.009
						c1.375-0.993,3.131-1.49,5.272-1.49c2.14,0,3.933,0.498,5.386,1.49c1.449,0.995,2.178,2.331,2.178,4.009v77.012
						c2.441-4.43,6.188-8.443,11.229-12.033c5.042-3.591,11.384-5.386,19.024-5.386c5.5,0,10.691,1.11,15.585,3.324
						c4.888,2.216,9.204,5.27,12.95,9.168c3.742,3.896,6.682,8.442,8.822,13.636c2.139,5.196,3.209,10.771,3.209,16.731v60.965
						c0,1.986-0.768,3.478-2.291,4.47c-1.527,0.994-3.287,1.49-5.271,1.49c-1.686,0-3.324-0.496-4.928-1.49
						c-1.604-0.992-2.407-2.481-2.407-4.47v-60.965c0-3.67-0.767-7.256-2.292-10.772c-1.529-3.516-3.553-6.606-6.074-9.283
						c-2.521-2.67-5.539-4.848-9.053-6.532c-3.516-1.678-7.184-2.523-11.002-2.523c-3.362,0-6.684,0.653-9.969,1.951
						c-3.287,1.298-6.228,3.209-8.824,5.728c-2.602,2.523-4.698,5.58-6.305,9.17c-1.604,3.591-2.406,7.678-2.406,12.262v60.965
						H333.881z"/>
					<path fill="#FFFFFF" d="M453.29,94.707c5.805,0,11.346,1.11,16.617,3.324c5.271,2.216,9.932,5.27,13.98,9.168
						c4.047,3.896,7.254,8.442,9.627,13.636c2.367,5.196,3.553,10.771,3.553,16.731v24.981c0,5.657-1.186,11.115-3.553,16.387
						c-2.373,5.273-5.58,9.896-9.627,13.865c-4.051,3.977-8.709,7.186-13.98,9.627c-5.271,2.442-10.812,3.67-16.617,3.67
						c-5.809,0-11.311-1.188-16.502-3.553c-5.197-2.367-9.779-5.578-13.752-9.629c-3.977-4.047-7.145-8.669-9.51-13.864
						c-2.373-5.194-3.555-10.693-3.555-16.503v-24.981c0-5.651,1.146-11.079,3.438-16.275c2.293-5.191,5.387-9.774,9.285-13.749
						c3.895-3.973,8.479-7.108,13.75-9.399C441.717,95.851,447.331,94.707,453.29,94.707z M482.168,137.566
						c0-3.67-0.766-7.256-2.289-10.772c-1.533-3.516-3.594-6.606-6.188-9.283c-2.604-2.67-5.658-4.848-9.172-6.532
						c-3.518-1.678-7.258-2.523-11.23-2.523c-3.975,0-7.717,0.845-11.23,2.523c-3.516,1.685-6.531,3.862-9.053,6.532
						c-2.52,2.677-4.508,5.768-5.957,9.283c-1.457,3.516-2.18,7.102-2.18,10.772v24.981c0,3.823,0.723,7.529,2.18,11.115
						c1.449,3.592,3.475,6.762,6.072,9.512c2.598,2.752,5.617,4.967,9.053,6.648c3.438,1.684,7.143,2.52,11.115,2.52
						s7.715-0.836,11.23-2.52c3.514-1.682,6.568-3.896,9.172-6.648c2.594-2.75,4.654-5.92,6.188-9.512
						c1.523-3.586,2.289-7.292,2.289-11.115V137.566L482.168,137.566z"/>
					<path fill="#FFFFFF" d="M531.903,193.49c8.709,0,14.816-1.604,18.336-4.812c3.512-3.21,5.27-7.027,5.27-11.461
						c0-5.044-1.414-8.94-4.24-11.689c-2.828-2.75-6.303-4.963-10.43-6.647c-4.123-1.678-8.672-3.168-13.635-4.47
						c-4.967-1.295-9.512-3.014-13.639-5.155c-4.125-2.139-7.604-4.965-10.43-8.481c-2.828-3.514-4.238-8.481-4.238-14.899
						c0-3.666,0.648-7.333,1.947-11c1.297-3.667,3.4-6.991,6.303-9.971s6.648-5.422,11.23-7.333
						c4.586-1.91,10.162-2.864,16.73-2.864c3.818,0,7.564,0.343,11.23,1.028c3.67,0.69,6.953,1.531,9.857,2.523
						c2.898,0.995,5.229,2.175,6.988,3.552c1.758,1.375,2.637,2.751,2.637,4.126c0,1.223-0.574,2.829-1.719,4.814
						c-1.146,1.987-2.637,2.979-4.471,2.979c-0.918,0-2.062-0.343-3.436-1.033c-1.377-0.686-3.062-1.409-5.045-2.175
						c-1.986-0.765-4.279-1.49-6.875-2.18c-2.602-0.688-5.578-1.031-8.939-1.031c-4.279,0-7.871,0.572-10.771,1.721
						c-2.902,1.142-5.271,2.598-7.104,4.354c-1.834,1.756-3.135,3.706-3.898,5.842c-0.766,2.141-1.145,4.126-1.145,5.96
						c0,4.434,1.408,7.793,4.24,10.084c2.826,2.292,6.34,4.167,10.543,5.616c4.201,1.454,8.744,2.828,13.635,4.124
						c4.891,1.3,9.436,3.134,13.641,5.501c4.197,2.372,7.715,5.58,10.541,9.627c2.824,4.049,4.242,9.512,4.242,16.385
						c0,9.172-3.211,16.389-9.627,21.66c-6.416,5.272-15.51,7.91-27.273,7.91c-5.354,0-10.24-0.539-14.67-1.605
						c-4.434-1.067-8.215-2.408-11.346-4.012c-3.133-1.604-5.578-3.397-7.334-5.386c-1.758-1.985-2.635-3.819-2.635-5.504
						c0-1.522,0.492-3.055,1.488-4.58c0.99-1.526,2.252-2.293,3.781-2.293c1.221,0,2.521,0.572,3.896,1.72
						c1.375,1.146,3.17,2.369,5.387,3.664c2.213,1.303,4.963,2.522,8.25,3.67C522.465,192.916,526.706,193.49,531.903,193.49z"/>
					<path fill="#FFFFFF" d="M587.594,170.801c0,7.486,1.564,12.721,4.701,15.698c3.127,2.979,6.686,4.437,14.633,4.437l0.322,0.033
						c2.137,0,3.818,0.689,5.043,2.064c1.221,1.373,1.832,2.902,1.832,4.58c0,1.837-0.611,3.441-1.832,4.813
						c-1.225,1.375-2.906,2.064-5.043,2.064l0,0c-11.92,0-19.273-2.638-25.385-7.906c-6.111-5.274-9.166-13.867-9.166-25.785V50.014
						c0-1.682,0.799-3.016,2.404-4.013c1.604-0.993,3.244-1.49,4.928-1.49c1.834,0,3.553,0.497,5.154,1.49
						c1.605,0.997,2.408,2.331,2.408,4.013v46.068h13.203c1.525,0,2.787,0.612,3.781,1.833c0.994,1.226,1.49,2.675,1.49,4.357
						c0,1.68-0.496,3.131-1.49,4.353c-0.994,1.225-2.256,1.832-3.781,1.832h-13.203V170.801L587.594,170.801z"/>
					<path fill="#FFFFFF" d="M427.489,321.968c-0.459,1.372-1.26,2.328-2.406,2.861c-1.145,0.537-2.332,0.806-3.553,0.806
						c-3.057,0-5.123-1.146-6.189-3.437l-23.836-74.491L367.9,321.05c-0.918,3.056-3.134,4.585-6.649,4.585
						c-1.526,0-2.789-0.31-3.78-0.918c-0.995-0.611-1.798-1.833-2.408-3.667l-35.752-96.03c-0.611-1.223-0.918-2.369-0.918-3.438
						c0-1.838,0.956-3.399,2.866-4.7c1.908-1.298,3.933-1.947,6.074-1.947c1.221,0,2.328,0.268,3.322,0.801
						c0.993,0.539,1.643,1.414,1.947,2.637l29.338,81.596l23.609-74.49c0.76-2.596,2.746-3.895,5.955-3.895
						c1.377,0,2.599,0.266,3.67,0.801c1.066,0.538,1.834,1.568,2.291,3.094l22.688,75.404l30.025-82.51
						c0.307-1.068,0.918-1.91,1.834-2.521c0.918-0.609,1.984-0.916,3.209-0.916c1.984,0,3.973,0.572,5.959,1.717
						c1.986,1.146,2.98,2.791,2.98,4.932c0,1.373-0.311,2.52-0.918,3.438L427.489,321.968z"/>
					<path fill="#FFFFFF" d="M499.458,214.018c7.637,0,14.094,1.223,19.365,3.664c5.27,2.446,9.545,5.731,12.836,9.855
						c3.283,4.126,5.648,8.865,7.104,14.21c1.451,5.353,2.178,10.853,2.178,16.506v59.588c0,1.686-0.688,3.097-2.061,4.242
						c-1.377,1.144-3.137,1.719-5.273,1.719c-1.988,0-3.633-0.575-4.928-1.719c-1.299-1.146-1.949-2.558-1.949-4.242v-10.084
						c-3.975,4.586-8.785,8.676-14.439,12.262c-5.652,3.591-12.377,5.389-20.17,5.389c-4.432,0-8.52-0.612-12.262-1.833
						c-3.742-1.223-7.027-3.097-9.855-5.617c-2.828-2.523-5.041-5.65-6.646-9.398c-1.604-3.74-2.402-8.209-2.402-13.406
						c0-6.262,1.295-11.422,3.893-15.471c2.6-4.048,6.227-7.256,10.891-9.625c4.656-2.371,10.273-4.014,16.844-4.93
						c6.568-0.918,13.826-1.375,21.773-1.375h11.689v-5.498c0-3.67-0.5-7.338-1.488-11.002c-0.998-3.67-2.561-6.994-4.697-9.975
						c-2.145-2.976-4.932-5.422-8.369-7.332s-7.602-2.864-12.49-2.864c-3.822,0-7.066,0.344-9.74,1.03
						c-2.676,0.688-4.969,1.455-6.877,2.293c-1.912,0.84-3.477,1.604-4.697,2.293c-1.223,0.688-2.291,1.029-3.209,1.029
						c-1.986,0-3.477-0.914-4.471-2.752c-0.994-1.832-1.488-3.586-1.488-5.271c0-1.523,0.918-2.979,2.75-4.354
						c1.834-1.373,4.242-2.597,7.223-3.668c2.977-1.064,6.303-1.947,9.969-2.637C492.12,214.359,495.788,214.018,499.458,214.018z
						 M526.042,274.064h-9.627c-5.348,0-10.426,0.193-15.24,0.574c-4.811,0.385-9.131,1.262-12.947,2.637
						c-3.82,1.373-6.842,3.36-9.057,5.957c-2.215,2.601-3.322,6.113-3.322,10.545c0,6.727,1.908,11.572,5.73,14.553
						c3.814,2.979,8.555,4.47,14.209,4.47c3.67,0,7.295-0.762,10.887-2.292c3.588-1.524,6.838-3.474,9.74-5.844
						c2.902-2.367,5.234-4.965,6.994-7.793c1.752-2.826,2.633-5.537,2.633-8.135V274.064L526.042,274.064z"/>
					<path fill="#FFFFFF" d="M565.198,214.018c2.135,0,3.932,0.496,5.385,1.488c1.449,0.995,2.176,2.329,2.176,4.01v98.325
						c0,1.531-0.727,2.905-2.176,4.127c-1.453,1.226-3.25,1.834-5.385,1.834c-2.145,0-3.898-0.608-5.275-1.834
						c-1.373-1.222-2.061-2.596-2.061-4.127v-98.325c0-1.681,0.688-3.015,2.061-4.01
						C561.299,214.514,563.055,214.018,565.198,214.018z"/>
					<path fill="#FFFFFF" d="M597.579,214.018c2.139,0,3.932,0.496,5.383,1.488c1.453,0.995,2.18,2.329,2.18,4.01v98.325
						c0,1.531-0.727,2.905-2.18,4.127c-1.451,1.226-3.244,1.834-5.383,1.834c-2.145,0-3.896-0.608-5.271-1.834
						c-1.377-1.222-2.066-2.596-2.066-4.127v-98.325c0-1.681,0.689-3.015,2.066-4.01
						C593.682,214.514,595.434,214.018,597.579,214.018z"/>
				</g>
			</g>
		</g>
	</g>
</g>
</svg>
