<?xml version="1.0" encoding="utf-8"?>
<!-- Generator: Adobe Illustrator 16.0.4, SVG Export Plug-In . SVG Version: 6.00 Build 0)  -->
<!DOCTYPE svg PUBLIC "-//W3C//DTD SVG 1.1//EN" "http://www.w3.org/Graphics/SVG/1.1/DTD/svg11.dtd">
<svg version="1.1" id="Layer_1" xmlns="http://www.w3.org/2000/svg" xmlns:xlink="http://www.w3.org/1999/xlink" x="0px" y="0px"
	 width="50px" height="50px" viewBox="0 0 50 50" enable-background="new 0 0 50 50" xml:space="preserve">
<path fill="#FFFFFF" d="M24.731,1.387c-12.882,0-23.326,10.443-23.326,23.326c0,12.882,10.443,23.325,23.326,23.325
	c12.882,0,23.325-10.443,23.325-23.325C48.057,11.831,37.613,1.387,24.731,1.387z M28.199,40.721c0,0.852-0.394,1.651-1.105,2.252
	c-0.63,0.532-1.43,0.815-2.312,0.815c-0.9,0-1.705-0.294-2.327-0.848c-0.861-0.769-1.042-1.631-1.042-2.22V19.679
	c0-0.938,0.42-1.757,1.183-2.31c1.201-0.867,3.114-0.875,4.357-0.025c0.803,0.548,1.245,1.378,1.245,2.335V40.721z M27.556,12.155
	c-0.748,0.747-1.707,1.142-2.773,1.142c-1.089,0-2.065-0.386-2.825-1.118c-0.778-0.748-1.19-1.698-1.19-2.746
	c0-1.061,0.42-2.011,1.218-2.747c1.496-1.382,4.037-1.419,5.542,0.022c0.766,0.737,1.169,1.678,1.169,2.725
	C28.696,10.465,28.302,11.407,27.556,12.155z"/>
</svg>
