<?xml version="1.0" encoding="utf-8"?>
<!-- Generator: Adobe Illustrator 16.0.4, SVG Export Plug-In . SVG Version: 6.00 Build 0)  -->
<!DOCTYPE svg PUBLIC "-//W3C//DTD SVG 1.1//EN" "http://www.w3.org/Graphics/SVG/1.1/DTD/svg11.dtd">
<svg version="1.1" id="Layer_1" xmlns="http://www.w3.org/2000/svg" xmlns:xlink="http://www.w3.org/1999/xlink" x="0px" y="0px"
	 width="200px" height="200px" viewBox="0 0 200 200" enable-background="new 0 0 200 200" xml:space="preserve">
<g>
	<path fill="#FFFFFF" d="M100.302,63.638c-9.282,0.053-16.504,7.481-16.433,16.903c0.071,9.465,7.708,17.376,16.688,17.291
		c9.332-0.088,16.942-8.008,16.858-17.548C117.335,70.784,109.932,63.583,100.302,63.638z"/>
	<path fill="#FFFFFF" d="M100,8.75C49.604,8.75,8.75,49.604,8.75,100c0,50.396,40.854,91.25,91.25,91.25
		c50.396,0,91.25-40.854,91.25-91.25C191.25,49.604,150.396,8.75,100,8.75z M144.131,82.585c-0.482,6.412-3.001,13.002-5.958,18.815
		c-3.947,7.757-9.011,14.985-13.983,22.173c-9.779,14.136-17.554,29.157-21.626,45.952c-0.519,2.139-1.01,4.284-1.514,6.428
		c-0.361-0.008-0.723-0.016-1.084-0.023c-0.361-0.906-0.856-1.781-1.066-2.721c-4.013-17.917-12.012-33.997-22.369-49.026
		c-5.229-7.586-10.861-14.981-15.257-23.038c-10.935-20.041-5.302-44.614,13.138-57.337c15.075-10.404,31.325-11.226,47.298-2.385
		C137.617,50.229,145.499,64.38,144.131,82.585z"/>
</g>
</svg>
