<?xml version="1.0" encoding="utf-8"?>
<!-- Generator: Adobe Illustrator 16.0.4, SVG Export Plug-In . SVG Version: 6.00 Build 0)  -->
<!DOCTYPE svg PUBLIC "-//W3C//DTD SVG 1.1//EN" "http://www.w3.org/Graphics/SVG/1.1/DTD/svg11.dtd">
<svg version="1.1" id="Layer_1" xmlns="http://www.w3.org/2000/svg" xmlns:xlink="http://www.w3.org/1999/xlink" x="0px" y="0px"
	 width="200px" height="200px" viewBox="0 0 200 200" enable-background="new 0 0 200 200" xml:space="preserve">
<g>
	<path fill-rule="evenodd" clip-rule="evenodd" fill="#FFFFFF" d="M104.144,5.218c1.82,0.117,3.637,0.319,5.441,0.613
		c3.241,0.527,6.495,1.29,9.643,2.228c24.069,7.174,39.793,28.087,41.696,53.634c1.038,13.91-2.952,26.363-8.308,38.69
		c-14.378,33.097-33.238,63.692-52.604,94.67c-21.391-34.991-43.66-68.963-57.315-107.422C31.401,55.814,46.24,21.437,75.766,9.907
		C84.74,6.403,94.505,4.601,104.144,5.218z M100.011,88.896c11.722,0.016,21.264-9.357,21.376-20.996
		c0.113-11.695-9.767-21.521-21.505-21.388c-11.643,0.132-21.168,9.723-21.145,21.292C78.761,79.409,88.314,88.882,100.011,88.896z"
		/>
</g>
</svg>
