<?xml version="1.0" encoding="utf-8"?>
<!-- Generator: Adobe Illustrator 16.0.4, SVG Export Plug-In . SVG Version: 6.00 Build 0)  -->
<!DOCTYPE svg PUBLIC "-//W3C//DTD SVG 1.1//EN" "http://www.w3.org/Graphics/SVG/1.1/DTD/svg11.dtd">
<svg version="1.1" id="Layer_1" xmlns="http://www.w3.org/2000/svg" xmlns:xlink="http://www.w3.org/1999/xlink" x="0px" y="0px"
	 width="200px" height="200px" viewBox="0 0 200 200" enable-background="new 0 0 200 200" xml:space="preserve">
<g>
	<path fill-rule="evenodd" clip-rule="evenodd" fill="#6E08A2" d="M100.064,114.757c-27.513,0-55.026,0.019-82.541-0.016
		c-5.852-0.009-10.25-2.688-12.733-7.993c-2.449-5.232-1.665-10.256,1.989-14.703c2.704-3.292,6.335-4.862,10.597-4.876
		c6.896-0.022,13.792-0.007,20.689-0.007c48.059,0,96.117-0.003,144.176,0.004c8.004,0.001,14.159,5.714,14.378,13.285
		c0.226,7.863-5.876,14.258-13.798,14.29c-13.937,0.054-27.873,0.016-41.81,0.016C127.363,114.757,113.713,114.757,100.064,114.757z
		"/>
	<path fill-rule="evenodd" clip-rule="evenodd" fill="#6E08A2" d="M99.809,169.946c-27.442,0-54.886,0.022-82.328-0.018
		c-5.853-0.009-10.241-2.716-12.708-8.031c-2.433-5.239-1.649-10.264,2.025-14.695c2.83-3.411,6.611-4.867,11.04-4.861
		c22.773,0.023,45.547,0.011,68.32,0.011c32.111,0,64.224-0.01,96.336,0.008c7.889,0.004,14.024,5.926,14.13,13.534
		c0.105,7.759-5.988,14.015-13.841,14.037c-16.092,0.049-32.185,0.016-48.276,0.016C122.939,169.946,111.374,169.946,99.809,169.946
		z"/>
	<path fill-rule="evenodd" clip-rule="evenodd" fill="#6E08A2" d="M100.166,31.972c27.442,0.001,54.883-0.011,82.324,0.008
		c8.144,0.005,14.308,6.232,14.13,14.175c-0.156,7.062-5.922,13.016-12.968,13.391c-0.503,0.027-1.006,0.021-1.509,0.021
		c-54.666,0-109.333,0.002-163.999-0.002c-7.078-0.001-12.609-4.006-14.216-10.241c-2.267-8.801,4.14-17.239,13.269-17.332
		c8.332-0.084,16.666-0.019,24.999-0.02C61.52,31.972,80.844,31.972,100.166,31.972z"/>
</g>
</svg>
