<?xml version="1.0" encoding="utf-8"?>
<!-- Generator: Adobe Illustrator 16.0.4, SVG Export Plug-In . SVG Version: 6.00 Build 0)  -->
<!DOCTYPE svg PUBLIC "-//W3C//DTD SVG 1.1//EN" "http://www.w3.org/Graphics/SVG/1.1/DTD/svg11.dtd">
<svg version="1.1" id="Layer_1" xmlns="http://www.w3.org/2000/svg" xmlns:xlink="http://www.w3.org/1999/xlink" x="0px" y="0px"
	 width="200px" height="200px" viewBox="0 0 200 200" enable-background="new 0 0 200 200" xml:space="preserve">
<g>
	<path fill-rule="evenodd" clip-rule="evenodd" fill="#6D2C91" d="M46.681,182.248c-1.535,0.336-3.187,0.332-4.749,0.382
		c-2.772,0.089-2.143-1.23-0.257-2.721c3.122-2.468,5.758-5.563,7.32-9.249c1.166-2.75,2.193-5.87,1.954-8.898
		c-0.16-2.017-1.807-2.974-3.334-3.968c-1.87-1.218-3.62-2.62-5.359-4.017c-3.029-2.434-5.943-5.01-8.71-7.738
		c-6.199-6.112-11.738-12.963-16.145-20.48C1.879,99.073,6.484,68.371,27.696,46.816c8.396-8.53,17.688-16.232,28.765-20.998
		c8.723-3.753,18.901-6.748,28.37-7.757c31.009-3.305,69.807,4.945,90.545,30.042c26.962,32.629,19.849,81.028-15.044,104.042
		c-9.489,6.259-21.408,12.456-32.464,15.329c-10.78,2.801-22.044,3.893-33.176,3.467c-5.448-0.209-11.125-2.309-16.517-2.054
		c-5.13,0.242-8.756,4.174-13.006,6.631C59.484,178.805,53.065,180.841,46.681,182.248z"/>
</g>
</svg>
