<?xml version="1.0" encoding="utf-8"?>
<!-- Generator: Adobe Illustrator 16.0.4, SVG Export Plug-In . SVG Version: 6.00 Build 0)  -->
<!DOCTYPE svg PUBLIC "-//W3C//DTD SVG 1.1//EN" "http://www.w3.org/Graphics/SVG/1.1/DTD/svg11.dtd">
<svg version="1.1" id="Layer_1" xmlns="http://www.w3.org/2000/svg" xmlns:xlink="http://www.w3.org/1999/xlink" x="0px" y="0px"
	 width="200px" height="200px" viewBox="0 0 200 200" enable-background="new 0 0 200 200" xml:space="preserve">
<g>
	<path fill="#6E08A2" d="M196.539,64.616c-2.72-7.978-9.995-13.305-18.488-13.375c-7.424-0.06-14.849-0.01-22.274-0.015
		c-4.791-0.004-7.722-2.102-9.248-6.658c-1.792-5.349-3.533-10.716-5.333-16.062c-1.496-4.446-4.451-6.555-9.127-6.555
		c-21.387-0.005-42.772-0.005-64.157,0c-4.66,0.001-7.608,2.12-9.115,6.573c-1.846,5.465-3.658,10.942-5.49,16.411
		c-1.365,4.075-4.404,6.279-8.725,6.288c-7.171,0.015-14.342,0.002-21.514,0.005C12.994,51.231,6.021,56.413,3.031,66.092
		c-0.123,0.397-0.073,0.916-0.569,1.138c0,31.369,0,62.739,0,94.108c0.562,0.676,0.481,1.554,0.702,2.331
		c2.404,8.439,9.936,14.35,18.709,14.356c52.087,0.034,104.175,0.039,156.263-0.004c9.208-0.008,16.881-6.398,18.982-15.469
		c0.098-0.418,0-0.907,0.42-1.215c0-31.242,0-62.484,0-93.727C196.847,66.734,196.879,65.612,196.539,64.616z M100.604,158.513
		c-27.211,0.088-49.29-21.489-49.374-48.256C51.145,82.948,72.764,61.09,99.965,60.985c26.694-0.103,48.731,21.771,48.804,48.442
		C148.843,136.329,127.16,158.425,100.604,158.513z"/>
	<path fill-rule="evenodd" clip-rule="evenodd" fill="#6E08A2" d="M99.952,144.088c-19.062-0.032-34.501-15.524-34.377-34.493
		c0.125-18.921,15.567-34.25,34.468-34.214c18.917,0.036,34.301,15.386,34.382,34.305
		C134.505,128.641,118.995,144.119,99.952,144.088z"/>
</g>
</svg>
