<?xml version="1.0" encoding="utf-8"?>
<!-- Generator: Adobe Illustrator 16.0.4, SVG Export Plug-In . SVG Version: 6.00 Build 0)  -->
<!DOCTYPE svg PUBLIC "-//W3C//DTD SVG 1.1//EN" "http://www.w3.org/Graphics/SVG/1.1/DTD/svg11.dtd">
<svg version="1.1" id="Layer_1" xmlns="http://www.w3.org/2000/svg" xmlns:xlink="http://www.w3.org/1999/xlink" x="0px" y="0px"
	 width="200px" height="200px" viewBox="0 0 200 200" enable-background="new 0 0 200 200" xml:space="preserve">
<g>
	<path fill-rule="evenodd" clip-rule="evenodd" fill="#6C2D8F" d="M99.77,190.738c-28.383,0-56.765,0.007-85.147-0.018
		c-1.573-0.002-3.169-0.146-4.716-0.436c-4.392-0.82-6.509-3.759-5.8-8.209c4.947-31.069,21.076-54.564,47.957-70.806
		c2.087-1.26,3.408-1.135,5.246,0.549c9.981,9.138,21.781,14.421,35.226,15.977c17.785,2.055,33.625-2.719,47.691-13.666
		c0.28-0.216,0.571-0.416,0.84-0.643c4.463-3.759,4.498-3.818,9.418-0.688c24.223,15.421,39.251,37.181,44.883,65.37
		c0.344,1.719,0.583,3.479,0.656,5.229c0.146,3.518-1.87,6.102-5.34,6.801c-1.712,0.346-3.49,0.518-5.237,0.518
		C156.887,190.747,128.328,190.738,99.77,190.738z"/>
	<path fill-rule="evenodd" clip-rule="evenodd" fill="#6C2D8F" d="M99.822,118.845c-29.2,0.209-54.876-24.397-54.604-55.25
		c0.265-29.932,25.224-54.578,55.293-54.333c29.573,0.241,54.562,24.845,54.34,55.285
		C154.629,94.881,129.098,119.261,99.822,118.845z"/>
</g>
</svg>
