<?xml version="1.0" encoding="utf-8"?>
<!-- Generator: Adobe Illustrator 16.0.4, SVG Export Plug-In . SVG Version: 6.00 Build 0)  -->
<!DOCTYPE svg PUBLIC "-//W3C//DTD SVG 1.1//EN" "http://www.w3.org/Graphics/SVG/1.1/DTD/svg11.dtd">
<svg version="1.1" id="Layer_1" xmlns="http://www.w3.org/2000/svg" xmlns:xlink="http://www.w3.org/1999/xlink" x="0px" y="0px"
	 width="200px" height="200px" viewBox="0 0 200 200" enable-background="new 0 0 200 200" xml:space="preserve">
<g>
	<path fill="#FFFFFF" d="M176.011,110.764c-1.897,3.955-4.901,7.402-9.007,10.325L53.65,194.904
		c-1.756,1.465-4.243,2.193-7.469,2.193c-5.856,0-11.49-2.558-16.918-7.688c-5.414-5.12-8.129-11.492-8.129-19.113
		c0-3.218,0.592-6.149,1.762-8.786c1.17-2.634,2.93-4.682,5.271-6.15l84.797-55.357l-84.797-55.8
		c-4.681-2.925-7.031-7.758-7.031-14.499c0-3.803,0.812-7.318,2.419-10.546c1.614-3.217,3.59-6.075,5.93-8.567
		c2.351-2.485,4.985-4.394,7.912-5.711c2.931-1.318,5.859-1.977,8.785-1.977c2.93,0,5.424,0.59,7.469,1.758l113.354,74.252
		c4.105,2.635,7.109,6.005,9.007,10.106c1.908,4.102,2.856,7.763,2.856,10.984C178.867,103.227,177.919,106.811,176.011,110.764z"/>
</g>
</svg>
