<?xml version="1.0" encoding="utf-8"?>
<!-- Generator: Adobe Illustrator 16.0.4, SVG Export Plug-In . SVG Version: 6.00 Build 0)  -->
<!DOCTYPE svg PUBLIC "-//W3C//DTD SVG 1.1//EN" "http://www.w3.org/Graphics/SVG/1.1/DTD/svg11.dtd">
<svg version="1.1" id="Layer_1" xmlns="http://www.w3.org/2000/svg" xmlns:xlink="http://www.w3.org/1999/xlink" x="0px" y="0px"
	 width="200px" height="200px" viewBox="0 0 200 200" enable-background="new 0 0 200 200" xml:space="preserve">
<g>
	<path fill="#FFFFFF" d="M99.915,42.625c-31.647,0.034-57.319,25.786-57.289,57.469c0.031,31.638,25.806,57.339,57.469,57.307
		c31.618-0.031,57.346-25.839,57.308-57.484C157.364,68.284,131.585,42.592,99.915,42.625z M105.598,98.121
		c-0.184,2.545-1.18,5.524-2.843,7.378c-5.038,5.616-10.592,10.771-15.928,16.122c-3.132,3.141-6.665,4.002-9.897,0.643
		c-2.986-3.104-2.195-6.516,0.76-9.472c4.078-4.078,8.386-7.964,12.099-12.355c1.731-2.046,3.131-5.052,3.228-7.678
		c0.378-10.13,0.148-20.284,0.19-30.427c0.015-3.932,1.79-6.592,5.944-6.729c4.444-0.147,6.5,2.462,6.538,6.724
		c0.056,6.167,0.015,12.333,0.015,18.499c0.008,0,0.016,0,0.023,0C105.727,86.593,106.012,92.382,105.598,98.121z"/>
	<path fill="#FFFFFF" d="M100,8.75C49.604,8.75,8.75,49.604,8.75,100c0,50.396,40.854,91.25,91.25,91.25
		c50.396,0,91.25-40.854,91.25-91.25C191.25,49.604,150.396,8.75,100,8.75z M99.959,170.218
		c-38.693-0.047-70.451-31.978-70.176-70.556c0.274-38.537,31.803-69.898,70.253-69.879c38.667,0.019,70.452,31.974,70.181,70.553
		C169.947,138.862,138.376,170.265,99.959,170.218z"/>
</g>
</svg>
