<?xml version="1.0" encoding="utf-8"?>
<!-- Generator: Adobe Illustrator 16.0.4, SVG Export Plug-In . SVG Version: 6.00 Build 0)  -->
<!DOCTYPE svg PUBLIC "-//W3C//DTD SVG 1.1//EN" "http://www.w3.org/Graphics/SVG/1.1/DTD/svg11.dtd">
<svg version="1.1" id="Layer_1" xmlns="http://www.w3.org/2000/svg" xmlns:xlink="http://www.w3.org/1999/xlink" x="0px" y="0px"
	 width="200px" height="200px" viewBox="0 0 200 200" enable-background="new 0 0 200 200" xml:space="preserve">
<path fill="#6D2C91" d="M167.505,97.713l-52.573-80.26c-1.865-2.907-4.253-5.035-7.156-6.377c-2.904-1.351-5.497-2.022-7.776-2.022
	c-2.283,0-4.821,0.671-7.621,2.022c-2.8,1.343-5.241,3.471-7.311,6.377l-52.265,80.26c-1.037,1.243-1.553,3.004-1.553,5.288
	c0,4.147,1.811,8.137,5.444,11.979c3.625,3.835,8.137,5.757,13.534,5.757c2.278,0,4.354-0.419,6.221-1.248
	c1.865-0.829,3.315-2.074,4.354-3.731l22.262-34.1v97.233c0,3.271,1.751,6.193,5.204,8.686c3.096,2.236,7.008,3.37,11.628,3.37
	c4.448,0,8.334-1.116,11.554-3.317c3.641-2.491,5.486-5.431,5.486-8.738V81.457l22.571,34.3c2.07,3.313,5.492,4.978,10.266,4.978
	c2.692,0,5.183-0.574,7.468-1.713c2.277-1.143,4.301-2.541,6.065-4.197c1.759-1.665,3.11-3.53,4.043-5.602
	c0.934-2.075,1.4-4.148,1.4-6.222S168.332,99.162,167.505,97.713z"/>
</svg>
