<?xml version="1.0" encoding="utf-8"?>
<!-- Generator: Adobe Illustrator 16.0.4, SVG Export Plug-In . SVG Version: 6.00 Build 0)  -->
<!DOCTYPE svg PUBLIC "-//W3C//DTD SVG 1.1//EN" "http://www.w3.org/Graphics/SVG/1.1/DTD/svg11.dtd">
<svg version="1.1" id="Layer_1" xmlns="http://www.w3.org/2000/svg" xmlns:xlink="http://www.w3.org/1999/xlink" x="0px" y="0px"
	 width="200px" height="200px" viewBox="0 0 200 200" enable-background="new 0 0 200 200" xml:space="preserve">
<g>
	<path fill-rule="evenodd" clip-rule="evenodd" fill="#6D2C91" d="M137.067,123.12c0,7.258,0.206,13.729-0.097,20.183
		c-0.13,2.772-0.744,5.755-2.14,8.209c-2.54,4.47-7.329,6.545-12.969,6.558c-31.919,0.068-63.837,0.074-95.755,0.004
		c-9.028-0.019-14.877-6.795-14.809-13.18c0.318-29.86,0.132-59.724,0.127-89.587c0-7.992,6.152-13.385,15.472-13.407
		c18.647-0.042,37.293-0.014,55.94-0.014c12.614,0,25.227-0.018,37.841,0.007c9.875,0.019,16.267,5.469,16.401,14.084
		c0.105,6.763,0.021,13.528,0.021,21.037c1.377-1.096,2.232-1.728,3.024-2.415c11.872-10.317,20.899-18.046,32.662-28.458
		c1.898-1.68,3.709-4.264,8.668-3.503c5.005,0.769,7.248,4.825,7.248,9.345c0.001,32.057-0.013,64.113-0.008,96.171
		c0,3.531-1.715,6.266-5.009,8.229c-5.693,2.346-9.039-0.707-12.264-3.512c-11.478-9.985-19.782-17.215-31.263-27.196
		C139.397,125.012,138.599,124.382,137.067,123.12z"/>
</g>
</svg>
